<svg xmlns="http://www.w3.org/2000/svg" width="158" height="30" viewBox="0 0 158 30" fill="none"><g clip-path="url(#clip0_6166_29430)"><g clip-path="url(#clip1_6166_29430)"><path d="M30 0H0V30H30V0Z" fill="#00B67A"></path><path d="M15.3906 20.1563L19.9056 19L21.792 24.875L15.3906 20.1563ZM25.7812 12.5625H17.8337L15.3906 5L12.9476 12.5625H5L11.4323 17.25L8.98926 24.8125L15.4215 20.125L19.3799 17.25L25.7812 12.5625Z" fill="white"></path></g><g clip-path="url(#clip2_6166_29430)"><path d="M62 0H32V30H62V0Z" fill="#00B67A"></path><path d="M47.3906 20.1563L51.9056 19L53.792 24.875L47.3906 20.1563ZM57.7812 12.5625H49.8337L47.3906 5L44.9476 12.5625H37L43.4323 17.25L40.9893 24.8125L47.4215 20.125L51.3799 17.25L57.7812 12.5625Z" fill="white"></path></g><g clip-path="url(#clip3_6166_29430)"><path d="M94 0H64V30H94V0Z" fill="#00B67A"></path><path d="M79.3906 20.1563L83.9056 19L85.792 24.875L79.3906 20.1563ZM89.7812 12.5625H81.8337L79.3906 5L76.9476 12.5625H69L75.4323 17.25L72.9893 24.8125L79.4215 20.125L83.3799 17.25L89.7812 12.5625Z" fill="white"></path></g><g clip-path="url(#clip4_6166_29430)"><path d="M126 0H96V30H126V0Z" fill="#00B67A"></path><path d="M111.391 20.1563L115.906 19L117.792 24.875L111.391 20.1563ZM121.781 12.5625H113.834L111.391 5L108.948 12.5625H101L107.432 17.25L104.989 24.8125L111.422 20.125L115.38 17.25L121.781 12.5625Z" fill="white"></path></g><g clip-path="url(#clip5_6166_29430)"><path d="M158 0H143V30H158V0Z" fill="#DCDCE6"></path><path d="M143 0H128V30H143V0Z" fill="#00B67A"></path><path d="M143 20.2187L147.563 19.0625L149.469 24.9375L143 20.2187ZM153.5 12.625H145.469L143 5.0625L140.531 12.625H132.5L139 17.3125L136.531 24.875L143.031 20.1875L147.031 17.3125L153.5 12.625Z" fill="white"></path></g></g><defs><clipPath id="clip0_6166_29430"><rect width="158" height="30" fill="white"></rect></clipPath><clipPath id="clip1_6166_29430"><rect width="30" height="30" fill="white"></rect></clipPath><clipPath id="clip2_6166_29430"><rect width="30" height="30" fill="white" transform="translate(32)"></rect></clipPath><clipPath id="clip3_6166_29430"><rect width="30" height="30" fill="white" transform="translate(64)"></rect></clipPath><clipPath id="clip4_6166_29430"><rect width="30" height="30" fill="white" transform="translate(96)"></rect></clipPath><clipPath id="clip5_6166_29430"><rect width="30" height="30" fill="white" transform="translate(128)"></rect></clipPath></defs></svg>